<svg width="112" height="112" viewBox="0 0 112 112" fill="none" xmlns="http://www.w3.org/2000/svg">
<path fill-rule="evenodd" clip-rule="evenodd" d="M62.5021 37.8912L67.1152 43.9818C67.4977 44.4874 67.5194 45.3277 67.1632 45.8518L66.93 46.1938C66.5749 46.7167 65.8608 47.4439 65.3439 47.81L64.7892 48.2C64.2733 48.5652 63.4376 48.5519 62.9338 48.1696L56.8412 43.5507C56.3374 43.1681 55.5118 43.1681 55.0077 43.5507L48.9154 48.1696C48.411 48.5521 47.571 48.5709 47.0513 48.2132L46.6485 47.9368C46.1285 47.5771 45.4042 46.8587 45.0422 46.3404L44.6946 45.8421C44.3327 45.3247 44.3483 44.4876 44.7291 43.982L49.3486 37.8885C49.7294 37.3827 49.7294 36.5585 49.3486 36.0533L44.7291 29.958C44.3483 29.4525 44.3338 28.6182 44.6987 28.1011L45.0914 27.5464C45.4548 27.0293 46.182 26.3151 46.7052 25.9604L47.0481 25.7271C47.571 25.3706 48.411 25.3941 48.9154 25.7746L55.0077 30.3938C55.5118 30.7761 56.3374 30.7761 56.8412 30.3938L62.9338 25.7746C63.4376 25.3938 64.295 25.3429 64.8413 25.6647L65.4785 26.0411C66.0246 26.3626 66.7214 27.0794 67.0284 27.633L67.2529 28.0384C67.5585 28.5905 67.4977 29.4566 67.1152 29.9621L62.5021 36.0559C62.1196 36.5612 62.1196 37.387 62.5021 37.8911L62.5021 37.8912ZM55.9997 13.5757C43.113 13.5757 32.6665 24.022 32.6665 36.9076C32.6665 49.7947 43.113 60.2424 55.9997 60.2424C68.8867 60.2424 79.3332 49.7947 79.3332 36.9076C79.3332 24.022 68.8867 13.5757 55.9997 13.5757Z" fill="#0071CE"/>
<path fill-rule="evenodd" clip-rule="evenodd" d="M63.797 86.8697L70.5972 79.6964C71.5476 78.6945 71.5476 77.0692 70.5972 76.0667C69.6471 75.0645 68.1061 75.0645 67.1563 76.0667L60.356 83.24L53.5557 76.0667C52.6056 75.0645 51.0651 75.0645 50.1147 76.0667C49.1643 77.0692 49.1643 78.6942 50.1147 79.6964L56.915 86.8697L50.1147 94.0427C49.1643 95.0449 49.1643 96.6701 50.1147 97.6727C50.5899 98.1739 51.2124 98.4243 51.8354 98.4243C52.4578 98.4243 53.0808 98.1739 53.5557 97.6727L60.356 90.4994L67.156 97.6727C67.6315 98.1739 68.2536 98.4243 68.8766 98.4243C69.4993 98.4243 70.1223 98.1739 70.5972 97.6727C71.5473 96.6701 71.5473 95.0449 70.5972 94.0427L63.797 86.8697ZM91.1003 79.9316H86.5107C85.3016 79.9316 84.3099 78.8851 84.3099 77.6091C84.3099 76.334 85.3016 75.2869 86.5107 75.2869H100.465C101.674 75.2869 102.666 76.334 102.666 77.6091C102.666 78.8851 101.674 79.9316 100.465 79.9316H95.8756V95.8606C95.8756 97.2673 94.8211 98.3794 93.4878 98.3794C92.1546 98.3794 91.1003 97.2673 91.1003 95.8606V79.9316ZM75.8444 77.6091C75.8444 76.203 76.8987 75.0909 78.2319 75.0909C79.5652 75.0909 80.6195 76.203 80.6195 77.6091V95.8606C80.6195 97.2673 79.5652 98.3794 78.2319 98.3794C76.8987 98.3794 75.8444 97.2673 75.8444 95.8606V77.6091ZM40.0925 77.6091C40.0925 76.203 41.1468 75.0909 42.4798 75.0909C43.8133 75.0909 44.8676 76.203 44.8676 77.6091V95.8606C44.8676 97.2673 43.8133 98.3794 42.4798 98.3794C41.1468 98.3794 40.0925 97.2673 40.0925 95.8606V77.6091ZM19.534 77.8056C19.534 76.399 20.5886 75.2869 21.9221 75.2869H34.0771C35.2865 75.2869 36.2476 76.301 36.2476 77.5764C36.2476 78.8522 35.2865 79.8662 34.0771 79.8662H24.3096V84.7396H32.6819C33.891 84.7396 34.8518 85.7537 34.8518 87.0291C34.8518 88.3052 33.891 89.3187 32.6819 89.3187H24.3096V95.8606C24.3096 97.2673 23.2551 98.3794 21.9221 98.3794C20.5886 98.3794 19.534 97.2673 19.534 95.8606V77.8056ZM9.33301 77.6091C9.33301 76.203 10.3873 75.0909 11.7203 75.0909C13.0538 75.0909 14.1078 76.203 14.1078 77.6091V95.8606C14.1078 97.2673 13.0538 98.3794 11.7203 98.3794C10.3873 98.3794 9.33301 97.2673 9.33301 95.8606V77.6091Z" fill="#0071CE"/>
</svg>
