<svg width="112" height="112" viewBox="0 0 112 112" fill="none" xmlns="http://www.w3.org/2000/svg">
<path d="M32.0992 9.3877H79.862L79.8131 97.4143L55.9844 77.9585L32.0992 97.4218V9.3877Z" fill="#ED1C2E"/>
<path d="M75.1545 14.1051L75.115 87.4917L61.9195 76.7161L55.9877 71.8739L50.0522 76.7104L36.804 87.5068V14.1051H75.1564H75.1545ZM84.5667 4.66602H27.3955V107.333L55.9802 84.037L84.5103 107.333L84.5667 4.66602Z" fill="#D92E27"/>
<path d="M43.227 13.0201L42.2807 13.0163H40.8152C40.7136 13.0163 39.9272 13.0239 39.9272 13.0239L39.9121 14.1641L39.7692 14.1679L39.7786 12.8861L39.7729 12.3594C40.2734 12.3801 42.0757 12.3952 43.9476 12.3952C46.1299 12.3952 47.5371 12.3764 48.0883 12.3613L48.0827 12.9446L48.094 14.2415H47.9453C47.9453 14.1339 47.9209 13.7035 47.9228 13.662C47.9228 13.6469 47.8908 13.0692 47.887 13.0258L47.2606 13.0182H44.6625V21.0169C44.6625 21.0282 44.6775 21.5417 44.6794 21.6474C44.7509 21.6568 45.447 21.7002 45.573 21.7002H45.6219V21.9173C45.5843 21.9173 45.5373 21.9211 45.4996 21.9211C45.1046 21.9173 44.4668 21.8739 44.0134 21.8739C43.56 21.8739 42.9373 21.9136 42.4726 21.9192C42.4594 21.9192 42.3635 21.9192 42.3296 21.9155V21.6833C42.3296 21.6833 42.3616 21.6833 42.4049 21.6814C42.6024 21.6738 43.0859 21.6455 43.212 21.6361L43.2327 21.6323V20.947L43.227 13.0201Z" fill="white"/>
<path d="M55.2536 12.3506C55.2536 12.3506 55.9591 14.3177 56.0738 14.6065C56.1886 14.8954 58.3446 19.8735 58.3446 19.8735C58.3446 19.8735 59.3567 17.7289 60.2579 15.4277C60.4404 14.9614 60.6793 14.3535 60.8561 13.8627C61.1139 13.1435 61.3979 12.3525 61.3979 12.3525H61.9529C61.9529 12.3525 62.0903 13.2322 62.1392 13.623C62.2803 14.7613 63.2078 19.3921 63.5332 20.9156C63.6141 21.2969 63.6762 21.6254 63.6762 21.6254C63.7722 21.631 64.1465 21.665 64.3685 21.682C64.4156 21.6858 64.5397 21.6915 64.568 21.6915V21.9199C64.568 21.9199 64.4682 21.9255 64.4118 21.9255C63.9151 21.9218 63.14 21.8821 62.6622 21.8821C62.237 21.8821 61.8269 21.9142 61.4036 21.9237C61.3321 21.9237 61.2587 21.9237 61.1835 21.9237V21.6971C61.1835 21.6971 61.2418 21.6933 61.2719 21.6952C61.4788 21.6858 62.0301 21.6386 62.0846 21.6348C62.0846 21.5518 62.0545 21.2629 62.0094 20.9684C61.9793 20.7608 61.9266 20.4059 61.8701 20.0547C61.7497 19.3732 61.1891 16.551 61.0217 15.7694C60.9935 15.641 60.9784 15.5693 60.9784 15.5693C60.9784 15.5693 59.242 19.5658 58.892 20.353C58.8582 20.4304 58.8337 20.4851 58.8262 20.5021C58.4913 21.261 58.211 21.9369 58.211 21.9369H57.7181L55.0128 15.6939L54.9488 15.5485C54.9488 15.5485 54.7136 16.719 54.3731 18.3689C54.1925 19.2618 53.82 21.4913 53.7937 21.6386C54.0081 21.6669 54.4333 21.699 54.5481 21.6952C54.5744 21.6952 54.6196 21.6952 54.6534 21.6952V21.9218C54.6045 21.9274 54.4916 21.9293 54.4879 21.9274C54.0796 21.9199 53.7843 21.8916 53.344 21.8916C53.2274 21.8916 52.616 21.9199 52.3996 21.9274C52.3093 21.9312 52.1833 21.9218 52.1588 21.9218V21.699C52.1795 21.699 52.2228 21.6915 52.251 21.6896C52.4467 21.682 52.7477 21.6556 53.0016 21.6254C53.0223 21.5159 53.2425 20.4153 53.3121 20.0264C53.583 18.737 54.3788 14.4309 54.4804 13.8495C54.5669 13.2228 54.6704 12.4431 54.6779 12.3562C54.8886 12.36 55.2536 12.3525 55.2536 12.3525" fill="white"/>
<path d="M51.6603 21.9268C51.2934 21.9268 50.6707 21.872 50.2042 21.872C49.7376 21.872 49.1168 21.9268 48.6652 21.9268C48.6276 21.9268 48.5599 21.9192 48.5223 21.9192V21.6927C48.6107 21.6927 49.0095 21.6587 49.1205 21.6512C49.2503 21.6417 49.3707 21.6361 49.4234 21.621C49.4234 21.621 49.4234 21.3472 49.4253 20.9225C49.4309 19.4556 49.4403 15.3081 49.4253 13.4316C49.4253 13.2334 49.4215 12.7313 49.4215 12.6595C49.3369 12.652 49.2184 12.6425 49.1356 12.6312C49.0302 12.6256 48.5938 12.5897 48.5204 12.5859V12.3594C48.9493 12.3594 49.5909 12.399 50.112 12.399C50.6331 12.399 51.284 12.3594 51.7939 12.3594V12.5954C51.7111 12.601 51.5154 12.6105 51.5079 12.6123C51.3593 12.6256 50.9416 12.6671 50.84 12.6746C50.84 12.8162 50.84 13.0805 50.84 13.4052C50.84 15.0854 50.8382 19.4802 50.8382 20.9621C50.8382 21.1566 50.8382 21.334 50.8382 21.4416C50.8382 21.5549 50.8382 21.6228 50.84 21.6266C50.8419 21.6342 51.1034 21.6568 51.1636 21.6606C51.2784 21.6719 51.7525 21.6908 51.7675 21.6946H51.7995V21.9211C51.7675 21.9211 51.6923 21.9287 51.6603 21.9287" fill="white"/>
<path d="M67.1961 13.0423V16.8047L69.8863 16.8123C69.8995 16.8123 70.5994 16.7934 70.6163 16.7934C70.6596 16.7934 71.1393 16.7688 71.1581 16.7632C71.1581 16.7632 71.1656 16.7235 71.1769 16.6952C71.2164 16.4668 71.2653 16.2516 71.2785 16.0817C71.2785 16.0817 71.2917 16.0099 71.2917 15.9609L71.4441 15.9571C71.4441 15.9741 71.4516 16.0175 71.4516 16.0798C71.4497 16.3063 71.4309 16.7783 71.4328 17.086C71.4328 17.5315 71.4478 17.9317 71.4497 18.1337C71.4516 18.1904 71.4478 18.2829 71.4478 18.2829H71.2804C71.2785 18.2621 71.2748 18.2394 71.271 18.2168C71.2409 17.96 71.2164 17.7788 71.1732 17.5183C71.1732 17.5051 71.1619 17.4579 71.16 17.4277C71.0734 17.422 70.8477 17.4164 70.7273 17.4126C70.6746 17.4126 70.018 17.4069 69.2806 17.405C68.9777 17.405 68.434 17.4182 68.2044 17.4164C67.9335 17.4164 67.4877 17.4315 67.1979 17.4409V20.8522L67.213 21.292L68.8479 21.3185H71.175C71.1863 21.3166 71.7075 21.2977 71.8711 21.2996C71.905 21.2996 71.9746 21.2958 71.9746 21.2958C71.9896 21.1863 72.0085 20.9617 72.0273 20.7483C72.0292 20.7238 72.0875 20.1575 72.0875 20.0045H72.2305C72.2305 20.1461 72.2004 21.9339 72.2004 21.9339C71.937 21.9339 71.1336 21.9339 70.1384 21.9207C69.5364 21.9131 68.8629 21.9131 68.2007 21.9037C67.6626 21.8961 67.1321 21.8791 66.6486 21.8791C65.9582 21.8791 65.2828 21.9207 65.0213 21.9207C64.9611 21.9207 64.8557 21.9169 64.8331 21.9169V21.6922H64.882C65.0438 21.6922 65.5198 21.6658 65.7681 21.6243C65.7681 21.579 65.7851 21.0221 65.7851 21.0107C65.7851 21.0107 65.7851 13.9466 65.7851 13.6294C65.7851 13.2877 65.7776 12.7195 65.7776 12.6685C65.6365 12.6534 65.5875 12.6459 65.5574 12.6402C65.4088 12.6213 65.1153 12.5987 64.9573 12.5873C64.9121 12.5873 64.8632 12.5836 64.8388 12.5798C64.8388 12.5798 64.8388 12.3589 64.8388 12.3551C64.8745 12.357 64.9479 12.3533 65.0796 12.3533C65.3561 12.3533 65.8679 12.391 66.4906 12.391C66.8819 12.391 67.5159 12.374 67.9693 12.3684C68.6146 12.3684 69.1056 12.3627 69.7321 12.3589C70.7536 12.3533 71.6266 12.3457 71.9671 12.3457C72.0668 12.3457 72.1213 12.3457 72.1213 12.3457C72.1213 12.3627 72.1213 12.3835 72.1213 12.4061C72.1213 12.476 72.1195 12.6024 72.1213 12.7554C72.1251 13.2311 72.1383 13.9787 72.1383 14.2241H71.9953V14.158C71.9802 13.9919 71.9483 13.5199 71.9088 13.1235C71.905 13.0876 71.8975 13.0612 71.8975 13.0612C71.8128 13.0593 71.4629 13.048 71.4572 13.0442C71.4516 13.0404 71.1732 13.0366 71.1675 13.0329C71.1656 13.0329 70.2513 13.0272 69.3088 13.0253C68.6654 13.0253 68.0332 13.0291 67.6457 13.0291C67.5497 13.0291 67.2092 13.0404 67.2092 13.0404" fill="white"/>
<path d="M38.9755 27.8311C40.5596 27.8311 42.217 27.8311 43.2311 29.1223C43.9986 30.0908 44.1717 31.2574 44.1717 32.0522C44.1717 34.7083 42.4898 35.3804 41.7222 35.6768C42.3412 35.875 42.9357 36.0732 43.5528 36.6698C44.0965 37.2663 44.691 38.2593 44.691 39.7733C44.691 41.2874 44.0965 42.8769 42.8096 43.598C41.5228 44.3437 40.458 44.3928 39.0489 44.3928H34.0013V27.8311H38.9755ZM36.6747 34.7102H38.4074C39.57 34.7102 41.3761 34.6366 41.3761 32.2768C41.3761 29.9171 39.4948 29.9435 38.6538 29.9435H36.6747V34.7121V34.7102ZM36.6747 42.2105H38.8777C41.0563 42.2105 41.8972 41.1684 41.8972 39.5279C41.8972 36.8208 39.5211 36.8208 38.6557 36.8208H36.6766V42.2086L36.6747 42.2105Z" fill="#010101"/>
<path d="M56.9159 27.8311V30.0171H50.209V34.7857H55.4805V36.9718H50.209V42.1614H57.0401V44.3966H47.4886V27.8311H56.9178H56.9159Z" fill="#010101"/>
<path d="M66.3689 32.3498C65.8497 30.8094 65.1554 29.7919 63.4491 29.7919C61.7427 29.7919 61.1972 31.1322 61.1972 31.8779C61.1972 33.3674 62.5329 33.8639 64.4876 34.6341C66.3934 35.3534 69.1156 36.3973 69.1156 39.6745C69.1156 42.0588 67.4337 44.6904 63.5733 44.6904C58.9452 44.6904 58.1287 41.1886 57.856 40.071L60.281 39.3763C60.454 40.122 60.9488 42.4307 63.6466 42.4307C65.923 42.4307 66.32 40.8167 66.32 40.0464C66.32 38.4814 64.9842 37.8868 63.498 37.3393C61.6675 36.6446 60.8999 36.3463 60.0082 35.5761C59.2406 34.9059 58.5238 33.7393 58.5238 32.1988C58.5238 29.9391 60.1079 27.5303 63.5977 27.5303C67.4826 27.5303 68.3499 30.3865 68.6961 31.5286L66.3708 32.348L66.3689 32.3498Z" fill="#010101"/>
<path d="M79.5832 27.8311V30.1644H75.8959V44.3928H73.1736V30.1644H69.5352V27.8311H79.5832Z" fill="#010101"/>
<path d="M43.7972 71.173C44.0155 69.8723 44.5893 68.1865 46.8149 68.1865C49.0405 68.1865 49.6406 69.8572 49.6406 70.8446C49.6406 72.7494 48.0979 74.1595 45.846 75.666H49.7648L49.6143 77.4613H43.7991V75.666C44.6457 74.9392 46.4612 73.3912 47.1573 72.2963C47.3623 71.9678 47.5392 71.4883 47.5392 70.954C47.5392 70.7615 47.5392 69.8176 46.6926 69.8176C46.1884 69.8176 45.7651 70.0913 45.6278 71.543L43.7991 71.173H43.7972Z" fill="white"/>
<path d="M53.1882 68.1835C54.4167 68.1835 55.1674 68.6498 55.6734 69.6485C56.1513 70.5943 56.2341 72.1687 56.2341 72.7709C56.2341 76.1539 55.3066 77.5924 53.1901 77.5924C51.9334 77.5924 51.211 77.1129 50.7049 76.1123C50.2402 75.1816 50.1593 73.6053 50.1593 73.0031C50.1593 69.5786 51.115 68.1816 53.1901 68.1816L53.1882 68.1835ZM52.4376 75.4988C52.5599 75.8688 52.7386 76.1293 53.2014 76.1293C53.557 76.1293 53.8015 75.9783 53.952 75.512C54.0894 75.0872 54.1289 74.2793 54.1289 72.8955C54.1289 71.7855 54.1157 70.7453 53.9652 70.279C53.8429 69.909 53.651 69.6485 53.2014 69.6485C52.8063 69.6485 52.5862 69.8259 52.4376 70.279C52.3002 70.7037 52.2607 71.5401 52.2607 72.8955C52.2607 73.896 52.2739 75.0042 52.4376 75.4988Z" fill="white"/>
<path d="M56.3828 71.1681C56.601 69.8674 57.1748 68.1816 59.4004 68.1816C61.626 68.1816 62.2262 69.8523 62.2262 70.8397C62.2262 72.7445 60.6835 74.1547 58.4316 75.6611H62.3503L62.1998 77.4564H56.3847V75.6611C57.2313 74.9343 59.0468 73.3863 59.7428 72.2914C59.9479 71.9629 60.1247 71.4834 60.1247 70.9492C60.1247 70.7566 60.1247 69.8127 59.2782 69.8127C58.774 69.8127 58.3507 70.0864 58.2133 71.5382L56.3847 71.1681H56.3828Z" fill="white"/>
<path d="M67.0424 75.9612H68.5437V77.4545H63.5206V75.9612H65.0501V70.564C64.6268 70.9888 64.2581 71.3172 63.5206 71.7156V69.9203C64.5986 69.3445 65.131 68.7555 65.5129 68.2363H67.0424V75.9612Z" fill="white"/>
<path d="M92.3606 48.7305H19.6384V65.009H92.3606V48.7305Z" fill="#010101"/>
<path d="M24.3547 52.1035V61.3292H23.2352V52.1035H24.3547Z" fill="white"/>
<path d="M28.3624 52.1035L31.8767 59.3923V52.1035H32.8418V61.3292H31.7394L27.9071 53.4722V61.3292H26.942V52.1035H28.3624Z" fill="white"/>
<path d="M35.6954 52.1035L37.7084 59.7246L39.6931 52.1035H40.7542L38.19 61.3292H37.0461L34.5515 52.1035H35.6954Z" fill="white"/>
<path d="M47.4535 52.1035V53.0304H43.5667V56.0868H46.6276V57.0137H43.5667V60.4023H47.5645V61.3292H42.451V52.1035H47.4553H47.4535Z" fill="white"/>
<path d="M50.8589 52.1035L54.3732 59.3923V52.1035H55.3383V61.3292H54.2358L50.4036 53.4722V61.3292H49.4385V52.1035H50.8589Z" fill="white"/>
<path d="M62.1743 52.1035V53.0436H59.9694V61.3292H58.8519V53.0436H56.6602V52.1035H62.1743Z" fill="white"/>
<path d="M64.66 52.1035V61.3292H63.5405V52.1035H64.66Z" fill="white"/>
<path d="M73.465 56.7211C73.465 58.7411 72.9683 61.5199 70.2253 61.5199C67.4824 61.5199 66.9312 58.5599 66.9312 56.7211C66.9312 54.7842 67.4128 51.9072 70.2253 51.9072C73.0379 51.9072 73.465 54.6596 73.465 56.7211ZM68.613 53.8158C68.2142 54.5898 68.09 55.7376 68.09 56.7211C68.09 57.7594 68.2274 58.8657 68.613 59.5982C68.9724 60.2891 69.4408 60.5949 70.2253 60.5949C71.0098 60.5949 71.4651 60.2079 71.7831 59.6133C72.197 58.8393 72.3061 57.6764 72.3061 56.723C72.3061 55.6583 72.1687 54.552 71.7831 53.8328C71.4802 53.2513 71.0663 52.836 70.1971 52.836C69.3976 52.836 68.9423 53.1947 68.6112 53.8177L68.613 53.8158Z" fill="white"/>
<path d="M77.1026 52.1035L80.6169 59.3923V52.1035H81.5821V61.3292H80.4796L76.6474 53.4722V61.3292H75.6823V52.1035H77.1026Z" fill="white"/>
<path d="M88.4491 54.4916C88.2008 53.7441 87.8697 52.8455 86.6017 52.8455C85.3337 52.8455 85.0722 53.8007 85.0722 54.284C85.0722 55.2524 85.8303 55.5564 87.0984 56.0415C88.1745 56.4568 89.7171 57.0515 89.7171 58.8223C89.7171 59.9701 88.9458 61.5199 86.7804 61.5199C85.994 61.5199 85.0985 61.284 84.5191 60.7459C83.8719 60.1513 83.7063 59.4037 83.6085 58.9072L84.6282 58.6165C84.7655 59.2244 85.0835 60.5798 86.8068 60.5798C88.1858 60.5798 88.5583 59.6114 88.5583 59.0035C88.5583 57.9105 87.6214 57.5102 86.7522 57.178C85.6911 56.7627 85.2641 56.5965 84.7806 56.168C84.299 55.7395 83.981 55.0334 83.981 54.3425C83.981 53.223 84.7937 51.9072 86.6958 51.9072C88.7633 51.9072 89.2468 53.5402 89.4387 54.2028L88.4454 54.4935L88.4491 54.4916Z" fill="white"/>
<path opacity="0.4" d="M27.3951 69.2215V65.0098H19.676L27.3951 69.2215Z" fill="#010101"/>
<path opacity="0.4" d="M33.9409 105.087L55.9824 83.9814L33.9409 102.112V105.087Z" fill="#010101"/>
<path opacity="0.4" d="M78.0219 105.087L55.9823 83.9814L78.0219 102.112V105.087Z" fill="#010101"/>
<path opacity="0.4" d="M84.4933 69.2215V65.0098H92.3421L84.4933 69.2215Z" fill="#010101"/>
</svg>
